<svg width="238" height="60" viewBox="0 0 238 60" fill="none" xmlns="http://www.w3.org/2000/svg">
<path d="M0 59.2333L1.69681 58.9176C2.58987 58.7822 4.10807 58.4214 5.04578 58.1959L6.69794 57.6998V34.4273L9.51107 34.1567C11.0293 33.9763 14.7355 33.7508 17.7719 33.5704L23.2195 33.2547V54.1819L24.9163 53.8662C25.8094 53.7309 27.2829 53.4602 28.1313 53.2798L29.6942 52.9641L29.8281 28.5641L29.9174 4.20915L27.5955 3.89344C26.3006 3.75813 24.7824 3.62283 24.2465 3.62283H23.2195V24.2343L21.5674 24.55C20.6296 24.6853 16.9235 24.8206 13.3066 24.8206H6.69794V1.45794L5.49231 1.18733C4.77786 1.09713 3.30432 0.82652 2.14334 0.691215L0 0.420605V59.2333Z" fill="white"/>
<path d="M33.0432 52.2876L34.2934 52.0621C34.9632 51.9268 36.3921 51.7013 37.5084 51.5209L39.5178 51.1601L39.6518 28.2935L39.7411 5.4269L38.7587 5.24649C38.1782 5.11118 36.66 4.93078 35.4098 4.79547L33.0432 4.56996V52.2876Z" fill="white"/>
<path d="M43.3133 28.2033C43.3133 40.471 43.4473 50.5286 43.6259 50.5286C43.7599 50.5286 45.1887 50.3031 46.7069 50.0325L49.5647 49.5364L49.654 41.4632L49.788 33.3449L57.2897 40.516L64.836 47.6421L67.1133 47.3264C68.4082 47.146 70.373 46.9656 71.5786 46.9656C72.7396 46.9205 73.6773 46.7401 73.6773 46.5146C73.6773 46.2891 70.5962 43.2673 66.8901 39.7944C63.1392 36.3216 58.8525 32.2173 57.379 30.729L54.6998 27.9778L64.3002 18.2809C70.507 11.9667 73.6327 8.53892 73.1861 8.40361C72.8736 8.31341 70.8195 8.0879 68.7208 7.9977L64.836 7.77219L57.5576 15.1689C53.5388 19.228 50.1006 22.5656 49.922 22.5656C49.6987 22.5656 49.5647 18.9574 49.5647 14.4923V6.41914L48.1805 6.14852C47.4214 6.01322 45.9925 5.87791 45.0548 5.87791H43.3133V28.2033Z" fill="white"/>
<path d="M164.367 8.0879L161.956 8.35851L158.473 15.8905C156.553 20.0399 152.579 28.4288 149.632 34.5175L144.318 45.5674H147.623C149.453 45.5674 151.061 45.6125 151.284 45.6576C151.507 45.7479 154.008 41.5534 154.588 40.065C154.678 39.8846 158.205 39.9748 162.403 40.2454C166.645 40.5611 170.217 40.6514 170.351 40.516C170.485 40.3807 169.994 38.8924 169.279 37.1785L167.984 34.0665L163.787 33.9763C156.866 33.7508 157.134 34.6528 161.554 25.0462C163.698 20.4909 165.573 16.7023 165.707 16.7023C166.064 16.7023 174.727 36.051 177.54 43.1771C178.746 46.1989 179.951 48.8148 180.219 48.905C180.532 49.0403 182.184 49.2658 183.925 49.4462L187.096 49.7619L185.086 44.8458C183.97 42.1397 179.996 32.6684 176.29 23.7833L169.502 7.68198L168.118 7.77219C167.404 7.81729 165.707 7.9526 164.367 8.0879Z" fill="white"/>
<path d="M126.368 8.98994C120.608 10.8842 116.991 14.8983 116.991 19.4535C116.991 24.5049 120.206 27.2561 129.627 30.278C136.191 32.3977 137.977 33.5704 137.977 35.8706C137.977 40.1552 131.101 41.5534 125.073 38.5316L122.438 37.1785L120.384 38.9375C119.268 39.9297 118.33 40.8318 118.33 41.0122C118.33 41.5985 122.84 43.6281 125.698 44.3948C132.441 46.1538 138.022 45.6576 141.505 42.9966C144.675 40.5612 145.836 34.6979 143.782 31.3604C141.907 28.2935 137.442 25.9482 129.136 23.648C123.956 22.2498 122.126 19.0025 125.073 16.5219C126.859 14.9885 128.02 14.7179 131.681 14.9885C133.691 15.1238 135.343 15.5748 136.549 16.2513L138.335 17.2887L139.63 16.3415C140.299 15.8454 141.326 14.9434 141.907 14.357C142.845 13.3197 142.845 13.2295 142.13 12.5079C141.684 12.1471 139.719 11.1548 137.754 10.343C134.048 8.80953 128.824 8.17811 126.368 8.98994Z" fill="white"/>
<path d="M87.6537 19.0927C85.1084 24.3245 81.179 32.6684 78.8124 37.6295L74.5704 46.6048L78.2319 46.244C80.2859 46.0636 81.9381 45.9283 81.9381 45.8832C81.9381 45.8381 82.6525 44.3497 83.4563 42.5907L84.9298 39.3885L92.8334 39.0728C97.1201 38.8924 100.737 38.6669 100.826 38.5767C100.916 38.5316 100.335 37.1785 99.576 35.6451L98.1471 32.8037L93.012 33.1194C88.1448 33.4351 87.8769 33.39 88.1448 32.6232C88.3235 32.1722 90.1989 28.4739 92.2976 24.4147L96.0931 17.0632L102.791 30.278C106.453 37.5844 109.712 43.8085 110.025 44.1242C110.427 44.5301 111.632 44.6654 113.954 44.5752L117.303 44.4399L108.551 27.0757L99.7546 9.71157L96.0038 9.62136L92.2083 9.48606L87.6537 19.0927Z" fill="white"/>
<path d="M233.401 0.69122L231.749 0.96183L231.838 29.872L231.972 58.7822L234.428 59.3686C235.767 59.6843 237.152 59.9549 237.464 60C237.866 60 238 53.7309 238 30.0073V0L233.401 0.69122Z" fill="white"/>
<path d="M219.603 4.88567C219.603 4.88567 216.075 12.4628 213.352 18.0554L208.484 28.2033L203.573 18.9574C200.893 13.8609 198.125 8.62912 197.455 7.32117L196.294 4.97588L193.57 5.20139C192.097 5.38179 190.445 5.5622 189.909 5.6975L188.882 5.87791V27.9327C188.882 39.5959 188.893 47.5227 189.048 50.2129L192.856 50.7992L195.58 51.115V18.7319L197.232 21.6635C198.125 23.2872 200.983 28.8347 203.617 34.0214C207.238 41.092 208.578 42.8947 208.578 42.8947L215.629 29.5563L221.434 17.8299V37.0883L221.478 56.3017L224.559 57.0233C226.301 57.4292 227.774 57.7449 227.908 57.7449C228.087 57.7449 228.176 45.0713 228.176 29.5563V1.36774L226.301 1.45794C225.229 1.50304 222.684 1.68345 222.684 1.68345L221.077 1.84211L219.603 4.88567Z" fill="white"/>
</svg>
