<svg width="12" height="19" viewBox="0 0 12 19" fill="none" xmlns="http://www.w3.org/2000/svg">
<path d="M4.584 12.12C4 12.12 3.464 12.016 2.976 11.808C2.488 11.6 2.064 11.304 1.704 10.92C1.344 10.528 1.064 10.068 0.864 9.54C0.672 9.012 0.576 8.432 0.576 7.8C0.576 7.2 0.68 6.644 0.888 6.132C1.104 5.612 1.4 5.156 1.776 4.764C2.152 4.372 2.588 4.068 3.084 3.852C3.58 3.636 4.116 3.528 4.692 3.528C5.1 3.528 5.496 3.592 5.88 3.72C6.272 3.84 6.624 4.012 6.936 4.236C7.256 4.452 7.516 4.7 7.716 4.98L6.852 5.88C6.62 5.648 6.384 5.456 6.144 5.304C5.912 5.144 5.672 5.024 5.424 4.944C5.184 4.864 4.94 4.824 4.692 4.824C4.3 4.824 3.932 4.9 3.588 5.052C3.252 5.196 2.956 5.4 2.7 5.664C2.452 5.928 2.256 6.244 2.112 6.612C1.968 6.972 1.896 7.368 1.896 7.8C1.896 8.256 1.964 8.672 2.1 9.048C2.244 9.416 2.444 9.732 2.7 9.996C2.956 10.26 3.26 10.464 3.612 10.608C3.972 10.744 4.368 10.812 4.8 10.812C5.064 10.812 5.324 10.776 5.58 10.704C5.836 10.632 6.076 10.528 6.3 10.392C6.524 10.256 6.728 10.096 6.912 9.912L7.56 10.968C7.376 11.184 7.124 11.38 6.804 11.556C6.492 11.732 6.14 11.872 5.748 11.976C5.364 12.072 4.976 12.12 4.584 12.12Z" fill="black"/>
<path d="M7.416 6.88C8 6.88 8.536 6.984 9.024 7.192C9.512 7.4 9.936 7.696 10.296 8.08C10.656 8.472 10.936 8.932 11.136 9.46C11.328 9.988 11.424 10.568 11.424 11.2C11.424 11.8 11.32 12.356 11.112 12.868C10.896 13.388 10.6 13.844 10.224 14.236C9.848 14.628 9.412 14.932 8.916 15.148C8.42 15.364 7.884 15.472 7.308 15.472C6.9 15.472 6.504 15.408 6.12 15.28C5.728 15.16 5.376 14.988 5.064 14.764C4.744 14.548 4.484 14.3 4.284 14.02L5.148 13.12C5.38 13.352 5.616 13.544 5.856 13.696C6.088 13.856 6.328 13.976 6.576 14.056C6.816 14.136 7.06 14.176 7.308 14.176C7.7 14.176 8.068 14.1 8.412 13.948C8.748 13.804 9.044 13.6 9.3 13.336C9.548 13.072 9.744 12.756 9.888 12.388C10.032 12.028 10.104 11.632 10.104 11.2C10.104 10.744 10.036 10.328 9.9 9.952C9.756 9.584 9.556 9.268 9.3 9.004C9.044 8.74 8.74 8.536 8.388 8.392C8.028 8.256 7.632 8.188 7.2 8.188C6.936 8.188 6.676 8.224 6.42 8.296C6.164 8.368 5.924 8.472 5.7 8.608C5.476 8.744 5.272 8.904 5.088 9.088L4.44 8.032C4.624 7.816 4.876 7.62 5.196 7.444C5.508 7.268 5.86 7.128 6.252 7.024C6.636 6.928 7.024 6.88 7.416 6.88Z" fill="black"/>
</svg>
