<svg width="246" height="68" viewBox="0 0 246 68" fill="none" xmlns="http://www.w3.org/2000/svg">
<g clip-path="url(#clip0_3_531)">
<path d="M76.7679 19.1306C81.4385 19.1306 84.9203 20.7685 87.1847 24.0159L88.1188 19.9778H98.9329L91.3467 54.062H80.5043L81.3535 50.1086C78.5795 53.2995 75.3241 54.9097 71.5877 54.9097C67.6815 54.9097 64.5678 53.6664 62.2466 51.2105C59.9255 48.7256 58.7651 45.2809 58.7651 40.7904C58.7615 37.3635 59.4248 33.9686 60.7181 30.7939C62.0249 27.5509 64.1508 24.7004 66.889 22.5199C69.6913 20.2601 72.975 19.1306 76.7679 19.1306ZM78.6644 28.7317C76.1735 28.7317 74.107 29.6918 72.4653 31.5839C70.8237 33.476 70.0303 35.8198 70.0303 38.5306C70.0303 40.5639 70.6822 42.2016 71.9551 43.4442C73.2281 44.6868 74.8141 45.3078 76.7102 45.3078C79.2011 45.3078 81.3524 44.2348 83.1641 42.1169L85.5135 31.8098C83.8444 29.7484 81.58 28.7317 78.6644 28.7317Z" fill="white"/>
<path d="M159.923 54.9092C156.746 54.9185 153.593 54.364 150.61 53.2714C147.777 52.285 145.183 50.7169 142.996 48.6683L148.742 41.6642C149.959 42.9351 151.743 44.1493 154.091 45.2794C156.44 46.4095 158.705 46.9737 160.913 46.9737C161.989 46.9737 162.867 46.7478 163.546 46.2677C164.198 45.7876 164.536 45.1946 164.536 44.4888C164.536 43.5569 163.659 42.7099 161.876 42.0037C159.975 41.257 158.027 40.6344 156.045 40.1401C153.875 39.5814 151.874 38.5057 150.213 37.0056C149.358 36.2747 148.676 35.3639 148.216 34.3386C147.756 33.3133 147.529 32.199 147.553 31.0759C147.553 27.7719 148.855 24.9482 151.487 22.6043C154.12 20.2604 157.687 19.074 162.216 19.074C165.062 19.0678 167.887 19.5551 170.566 20.5142C173.112 21.3893 175.453 22.7729 177.445 24.5806L172.208 31.3014C171.217 30.2283 169.773 29.24 167.877 28.3645C166.109 27.5208 164.176 27.0772 162.216 27.0655C161.027 27.0655 160.093 27.2914 159.413 27.7715C158.734 28.2516 158.394 28.8163 158.394 29.4659C158.394 30.1155 158.989 30.7092 160.177 31.1884C161.567 31.7665 162.995 32.2477 164.452 32.6285C166.148 33.1163 167.812 33.7105 169.433 34.4074C171.072 35.1112 172.526 36.1841 173.679 37.5419C174.868 38.9256 175.463 40.62 175.463 42.5967C175.463 46.1266 174.047 49.0633 171.244 51.3789C168.415 53.7514 164.65 54.9092 159.923 54.9092Z" fill="white"/>
<path d="M129.168 54.9099C123.648 54.9099 119.232 53.5451 115.921 50.8154C112.609 48.0763 110.967 44.2927 110.967 39.4342C110.967 33.843 112.864 29.0518 116.657 25.0607C120.45 21.079 125.224 19.0929 130.979 19.1023C135.452 19.1023 139.188 20.4577 142.189 23.1969C145.189 25.936 146.689 29.6918 146.689 34.4923C146.685 36.4896 146.447 38.4795 145.982 40.422H121.78V40.8455C121.78 41.975 122.516 43.1892 124.016 44.5165C125.517 45.8438 127.498 46.4932 129.989 46.4932C133.386 46.4932 136.047 45.7872 138 44.3752L141.34 51.5761C138.085 53.8078 134.037 54.9099 129.168 54.9099ZM122.884 33.3909H137.037C137.094 33.3344 137.122 33.165 137.122 32.8827C137.122 31.5556 136.556 30.3412 135.452 29.2117C134.348 28.0822 132.706 27.5173 130.527 27.5173C128.678 27.491 126.884 28.1447 125.488 29.3536C124.073 30.5673 123.195 31.9227 122.884 33.3909Z" fill="white"/>
<path d="M91.6757 67.9999C87.0618 67.9999 83.6649 67.0649 81.4854 65.1665L85.873 57.3745C86.8637 58.5078 88.2505 59.0746 90.0623 59.0746C92.6099 59.0746 94.2805 57.3179 95.1008 53.8335L102.687 19.8886H113.585L105.97 53.8326C103.932 63.268 99.1675 67.9905 91.6757 67.9999ZM109.452 16.8559C107.811 16.8559 106.452 16.3174 105.376 15.2683C104.862 14.7797 104.456 14.1899 104.183 13.5362C103.91 12.8825 103.777 12.1793 103.791 11.4714C103.791 9.28961 104.527 7.56102 106.027 6.25763C107.528 4.95425 109.141 4.30371 110.867 4.30371C112.481 4.30371 113.811 4.81366 114.859 5.86207C115.369 6.3411 115.774 6.92119 116.047 7.56522C116.32 8.20925 116.455 8.90303 116.444 9.60216C116.444 11.7839 115.708 13.5123 114.236 14.8432C112.792 16.2042 111.179 16.8559 109.452 16.8559Z" fill="white"/>
<path d="M216.731 9.6117C216.731 11.7862 215.995 13.5086 214.523 14.8359C213.051 16.1632 211.466 16.8126 209.71 16.8126C208.068 16.8126 206.71 16.277 205.634 15.2313C205.121 14.7453 204.715 14.1577 204.442 13.5061C204.169 12.8546 204.035 12.1534 204.049 11.4474C204.049 9.27314 204.785 7.55047 206.285 6.25149C207.786 4.95251 209.399 4.30273 211.126 4.30273C212.74 4.30273 214.07 4.81096 215.117 5.85573C215.634 6.3348 216.045 6.91649 216.323 7.56336C216.6 8.21024 216.739 8.90798 216.731 9.6117Z" fill="white"/>
<path d="M53.5841 53.9475H41.4124L48.2908 22.8003L29.4387 53.9475H24.0604L19.022 22.8003L12.1717 53.9475H0L10.4167 6.87354H26.8911L30.9954 32.9096L46.6499 6.87354H63.9734L53.5841 53.9475Z" fill="white"/>
<path d="M189.633 54.7946C186.179 54.7946 183.434 54.1169 181.396 52.7896C179.358 51.4623 178.31 49.4292 178.31 46.7465C178.327 45.9138 178.402 45.0833 178.537 44.2614L181.877 29.2101H176.216L178.338 19.8066H184L186.066 10.488H196.936L194.87 19.8068H201.805L199.681 29.2103H192.747L190.199 40.7883C190.06 41.2949 189.984 41.8165 189.973 42.3415C189.973 44.2334 191.048 45.1654 193.228 45.1654C194.162 45.1654 194.87 44.9678 195.351 44.6005L195.493 53.298C194.247 54.3147 192.294 54.7946 189.633 54.7946Z" fill="white"/>
<path d="M202.918 19.9773L195.36 54.0617H206.258L213.843 19.9492H202.918V19.9773Z" fill="white"/>
<path d="M228.677 54.9092C223.383 54.9092 219.156 53.4596 215.995 50.5604C212.825 47.6518 211.24 43.8961 211.24 39.2367C211.24 33.5889 213.184 28.8261 217.071 24.9481C220.949 21.0794 225.752 19.1403 231.479 19.1309C238.358 19.1309 243.198 21.4371 246.001 26.0495L237.848 32.2054C236.433 29.8899 234.282 28.7322 231.394 28.7322C228.762 28.7322 226.582 29.6922 224.856 31.5843C223.129 33.5046 222.28 35.8202 222.28 38.6158C222.28 40.6771 222.988 42.315 224.403 43.5294C225.818 44.743 227.601 45.336 229.723 45.336C232.214 45.336 234.366 44.3194 236.177 42.2862L242.065 49.4307C240.65 50.9273 238.781 52.2263 236.46 53.3277C234.168 54.3727 231.564 54.9092 228.677 54.9092Z" fill="white"/>
</g>
<defs>
<clipPath id="clip0_3_531">
<rect width="246" height="68" fill="white"/>
</clipPath>
</defs>
</svg>
