<svg width="231" height="58" viewBox="0 0 231 58" fill="none" xmlns="http://www.w3.org/2000/svg">
<path d="M38.4756 36.2784L36.758 46.4H0L1.37413 38.1549L23.7324 16.6892H5.66828L7.32869 6.59608H42.9988L41.6247 14.8412L19.381 36.2784H38.4756Z" fill="white"/>
<path d="M117.658 27.9196L113.936 46.4H101.054L104.374 29.8529L104.489 28.6588C104.489 26.5739 103.516 25.5314 101.569 25.5314C99.2214 25.5314 97.4655 27.1804 96.3013 30.4784L93.095 46.4H80.2126L83.5334 29.8529L83.6479 28.6588C83.6479 26.5739 82.6745 25.5314 80.7279 25.5314C79.6782 25.5314 78.6476 25.9768 77.6361 26.8676C76.6055 27.7964 75.823 29.2464 75.2886 31.2176L72.2541 46.4H59.3716L65.5552 15.2961H78.4376L77.6933 19.1627C80.2507 16.2817 83.3234 14.8412 86.9114 14.8412C89.6025 14.8412 91.74 15.4667 93.3241 16.7176C94.889 17.9497 95.9578 19.5418 96.5303 21.4941C99.7557 17.0588 103.496 14.8412 107.752 14.8412C111.111 14.8412 113.65 15.8363 115.367 17.8265C117.085 19.8167 117.944 22.2144 117.944 25.0196C117.944 25.8725 117.848 26.8392 117.658 27.9196Z" fill="white"/>
<path d="M135.567 46.8549C131.96 46.8549 128.944 46.2105 126.521 44.9216C124.001 43.519 122.188 41.7278 121.081 39.548C119.936 37.3683 119.364 34.9895 119.364 32.4118C119.364 28.5641 120.232 25.3418 121.969 22.7451C123.82 20.0346 126.234 18.035 129.212 16.7461C132.132 15.4761 135.319 14.8412 138.773 14.8412C142.457 14.8412 145.482 15.4761 147.848 16.7461C150.348 18.1108 152.152 19.883 153.259 22.0627C154.366 24.2425 154.919 26.6307 154.919 29.2275C154.919 34.6863 153.106 38.9889 149.48 42.1353C145.854 45.2817 141.216 46.8549 135.567 46.8549ZM136.54 37.0176C138.334 37.0176 139.67 36.3353 140.548 34.9706C141.426 33.6248 141.865 32.0327 141.865 30.1941C141.865 28.6967 141.541 27.4552 140.892 26.4696C140.224 25.465 139.174 24.9627 137.743 24.9627C135.949 24.9627 134.613 25.6451 133.735 27.0098C132.857 28.3556 132.418 29.9477 132.418 31.7863C132.418 33.2837 132.742 34.5252 133.391 35.5108C134.059 36.5154 135.109 37.0176 136.54 37.0176Z" fill="white"/>
<path d="M182.553 30.4216L189.596 46.4H175.053L172.648 38.3255L166.064 46.4H151.578L165.32 30.4784L158.792 15.2961H173.278L175.282 22.5745L181.122 15.2961H195.493L182.553 30.4216Z" fill="white"/>
<path d="M196.418 58C192.372 58 188.841 56.6922 185.825 54.0765L192.295 46.2863C193.288 47.2719 194.433 47.7647 195.731 47.7647C196.704 47.7647 197.572 47.5752 198.336 47.1961C199.08 46.817 199.796 46.2294 200.483 45.4333L193.669 15.2961H206.666L209.186 33.0373L217.946 15.2961H231L211.361 49.0157C208.041 55.0052 203.059 58 196.418 58Z" fill="white"/>
<path fill-rule="evenodd" clip-rule="evenodd" d="M53.782 46.4L60.0229 15.3529H47.169L40.9282 46.4H53.782Z" fill="white"/>
</svg>
